<svg width="123" height="44" viewBox="0 0 123 44" fill="none" xmlns="http://www.w3.org/2000/svg">
<path d="M50.4201 21.5028C50.4201 22.9779 50.0621 24.0944 49.3713 24.8787C48.6685 25.6366 47.7789 26.0216 46.6115 26.0216C45.5902 26.0216 44.7808 25.7422 44.2097 25.1977C43.6386 24.6664 43.3608 23.8018 43.3608 22.6325L43.3871 14.113L40.0035 14.0998L39.9772 22.8195C39.9772 24.0691 40.2155 25.1724 40.7075 26.0898C41.1806 26.9777 41.8934 27.7145 42.7645 28.2161C43.6408 28.721 44.6358 28.9608 45.7373 28.974H45.7637C47.131 28.974 48.1787 28.7078 48.8958 28.1765C49.5591 27.6848 50.05 27.1535 50.3421 26.5947H50.4618V28.721L53.7795 28.7342L53.8323 14.1405L50.4487 14.1273L50.4223 21.5039L50.4201 21.5028ZM62.4829 26.1558H62.3368L58.6084 14.1669L55.0249 14.1537L59.8955 28.7749L64.911 28.7881L69.8739 14.2076L66.2904 14.1944L62.4818 26.1569L62.4829 26.1558ZM80.9142 14.751C79.7732 14.1394 78.4729 13.8204 77.0265 13.8204H77.0002C75.567 13.8204 74.2799 14.1262 73.152 14.7246C72.0291 15.3121 71.0951 16.206 70.4581 17.303C69.808 18.4063 69.4631 19.7483 69.4631 21.2641V21.703C69.4631 23.232 69.7816 24.574 70.4186 25.7037C71.0687 26.8202 71.9583 27.698 73.0993 28.2953C74.214 28.8937 75.5275 29.1995 76.9738 29.1995H77.0002C78.4334 29.1995 79.7205 28.9069 80.8615 28.3085C81.9911 27.7255 82.9305 26.8308 83.5686 25.7301C84.2188 24.6136 84.5636 23.2848 84.5636 21.7558V21.3169C84.5636 19.7879 84.2451 18.4591 83.6081 17.3426C82.958 16.2525 82.0421 15.3758 80.9142 14.751ZM76.9859 26.1558C75.7647 26.1558 74.7697 25.7433 73.9999 24.9601C73.2432 24.1626 72.8456 23.0593 72.8456 21.6502V21.384C72.8456 19.9749 73.2575 18.8716 74.013 18.0741C74.7697 17.2898 75.7779 16.9048 76.9859 16.9048V16.6925L76.9991 16.9048C78.2467 16.9048 79.268 17.3173 80.0247 18.1005C80.7813 18.898 81.1657 20.0013 81.1657 21.4104V21.6766C81.1657 23.0857 80.7539 24.189 79.9983 24.9865C79.2416 25.7708 78.2203 26.1558 76.9859 26.1558ZM97.6082 16.2129H97.4885C97.2765 15.8543 96.9712 15.4957 96.5989 15.1624C96.1739 14.7906 95.6435 14.4848 94.9933 14.2318C94.3432 13.992 93.547 13.8732 92.6047 13.86H92.5795C91.3582 13.86 90.2435 14.1526 89.2222 14.7367C88.2009 15.3208 87.364 16.1986 86.7534 17.3151C86.1428 18.4316 85.8243 19.7868 85.8243 21.329V21.7679C85.8243 23.3233 86.1296 24.6917 86.7534 25.795C87.364 26.9115 88.1998 27.775 89.2222 28.3734C90.2375 28.9656 91.3914 29.2776 92.5663 29.2776H92.5926C93.9863 29.2776 95.0878 29.0114 95.8576 28.4933C96.5737 28.0016 97.1447 27.4703 97.5159 26.8719H97.6488V28.8926L100.967 28.9058L101.032 8.36989L97.6488 8.35669L97.6093 16.2118L97.6082 16.2129ZM93.4152 16.7178L93.4284 16.9301C94.6628 16.9301 95.6841 17.3415 96.454 18.1126C97.237 18.8969 97.6213 20.0266 97.6213 21.4753V21.7415C97.6213 23.2034 97.2095 24.3331 96.4276 25.1174C95.6457 25.9017 94.6232 26.2867 93.4152 26.2867C92.2214 26.2867 91.2122 25.8742 90.4291 25.1042C89.6461 24.3199 89.2486 23.1902 89.2617 21.7283V21.4621C89.2617 20.0134 89.6736 18.8969 90.4566 18.1126C91.2396 17.3283 92.2346 16.9433 93.4426 16.9433L93.4163 16.7178H93.4152ZM116.532 17.4625C115.903 16.3557 114.967 15.4554 113.838 14.8709C112.697 14.2593 111.396 13.9403 109.95 13.9403H109.924C108.49 13.9403 107.203 14.2461 106.075 14.8445C104.952 15.432 104.018 16.3259 103.381 17.4229C102.731 18.5262 102.387 19.8682 102.387 21.384V21.8229C102.387 23.3519 102.705 24.6939 103.342 25.8236C103.992 26.9401 104.882 27.8179 106.023 28.4152C107.137 29.0136 108.451 29.3194 109.898 29.3194H109.925C111.358 29.3194 112.645 29.0268 113.786 28.4284C114.916 27.8454 115.855 26.9507 116.493 25.85C117.143 24.7335 117.475 23.4047 117.475 21.8757V21.45C117.501 19.921 117.183 18.5922 116.533 17.4625H116.532ZM109.91 26.2614C108.689 26.2614 107.694 25.8489 106.924 25.0657C106.168 24.2682 105.77 23.1649 105.77 21.7558V21.4896C105.77 20.0805 106.182 18.9772 106.938 18.1797C107.694 17.3954 108.702 17.0104 109.91 17.0104V16.7981L109.924 17.0104C111.171 17.0104 112.192 17.4218 112.949 18.2072C113.706 19.0047 114.09 20.108 114.09 21.5171V21.7833C114.09 23.1924 113.678 24.2957 112.923 25.0932C112.166 25.8775 111.158 26.2625 109.91 26.2625V26.2614ZM22.8055 36.8148C27.9946 35.1802 31.5111 30.3545 31.4979 24.8919L31.432 8.17079C31.4304 7.75084 31.3304 7.33713 31.1401 6.96294C30.9497 6.58874 30.6744 6.26449 30.3362 6.01627C29.998 5.76804 29.6064 5.60277 29.1929 5.53374C28.7793 5.4647 28.3553 5.49383 27.955 5.61879L8.44746 11.7733C7.90582 11.948 7.43377 12.2909 7.09969 12.7523C6.76561 13.2137 6.58684 13.7696 6.58928 14.3396L6.61564 24.9733C6.65518 33.374 14.8028 39.3415 22.8055 36.8159V36.8148Z" fill="#8979E8"/>
</svg>
